<svg width="34" height="46" viewBox="0 0 34 46" fill="none" xmlns="http://www.w3.org/2000/svg">
<path d="M17.875 15.5625H8.375C3.78413 15.5625 0.0625 12.2326 0.0625 8.125C0.0625 4.01737 3.78413 0.6875 8.375 0.6875H17.875V15.5625Z" fill="#E64A19"/>
<path d="M16.6875 30.4375H8.375C3.78412 30.4375 0.0625 27.1076 0.0625 23C0.0625 18.8924 3.78412 15.5625 8.375 15.5625H16.6875V30.4375Z" fill="#7C4DFF"/>
<path d="M8.375 45.3125C3.78412 45.3125 0.0625 41.9826 0.0625 37.875C0.0625 33.7674 3.78412 30.4375 8.375 30.4375H16.6875V37.875C16.6875 41.9826 12.9659 45.3125 8.375 45.3125Z" fill="#66BB6A"/>
<path d="M25 15.5625H16.6875V0.6875H25C29.5909 0.6875 33.3125 4.01737 33.3125 8.125C33.3125 12.2326 29.5909 15.5625 25 15.5625Z" fill="#FF7043"/>
<path d="M25 30.4375C29.5909 30.4375 33.3125 27.1076 33.3125 23C33.3125 18.8924 29.5909 15.5625 25 15.5625C20.4091 15.5625 16.6875 18.8924 16.6875 23C16.6875 27.1076 20.4091 30.4375 25 30.4375Z" fill="#29B6F6"/>
</svg>
