<svg width="54" height="50" viewBox="0 0 54 50" fill="none" xmlns="http://www.w3.org/2000/svg">
<path d="M27.3685 32.9193L18.3867 24.8769L27.3685 16.8344V0.25L1.71693 23.2187C1.22587 23.6585 0.950012 24.2549 0.950012 24.8769C0.950012 25.4988 1.22587 26.0952 1.71693 26.5351L27.3685 49.5037C27.3685 49.5037 31.2976 47.1583 31.2976 41.2948C31.0944 38.1831 29.7078 35.2275 27.3685 32.9193Z" fill="#2684FF"/>
<path d="M19.7895 23.3136L19.961 23.4673L27.3687 16.8344V0.25L13.4846 12.6807C14.5286 16.652 16.7003 20.3146 19.7895 23.3136Z" fill="#1D78F2"/>
<path d="M21.6846 21.693L21.8155 21.8102L27.3712 16.8356V0.25L15.7569 10.6472C16.4852 14.7686 18.5459 18.6087 21.6846 21.693Z" fill="#126AE5"/>
<path d="M27.3686 16.8344V0.25L18.2008 8.45896C18.4015 12.8158 20.3396 16.9639 23.6635 20.1509L27.3686 16.8344Z" fill="#0B60DA"/>
<path d="M20.8202 8.45896C20.8202 14.0246 25.2823 18.2757 25.5154 18.4926L27.3686 16.8344V0.25L21.0533 5.9048C20.8966 6.74892 20.8186 7.60325 20.8202 8.45896Z" fill="#0154CE"/>
<path d="M27.3686 16.8344L36.3491 24.8769L27.3686 32.9193V49.5037L53.0189 26.5351C53.5099 26.0952 53.7858 25.4988 53.7858 24.8769C53.7858 24.2549 53.5099 23.6585 53.0189 23.2187L27.3686 0.25C27.3686 0.25 23.4395 2.59542 23.4395 8.45896C23.6428 11.5706 25.0293 14.5262 27.3686 16.8344Z" fill="#2482FD"/>
<path d="M34.9465 26.4401L34.7749 26.2865L27.3686 32.9193V49.5038L41.2513 37.0731C40.2074 33.1017 38.0356 29.4392 34.9465 26.4401Z" fill="#1D78F2"/>
<path d="M33.0513 28.0608L32.9204 27.9435L27.366 32.9181V49.5037L38.9777 39.1065C38.2494 34.9854 36.1891 31.1454 33.0513 28.0608Z" fill="#126AE5"/>
<path d="M27.3686 32.9193V49.5038L36.5364 41.2948C36.3355 36.9378 34.3969 32.7896 31.0724 29.6029L27.3686 32.9193Z" fill="#0B60DA"/>
<path d="M33.9171 41.2948C33.9171 35.7291 29.4549 31.4781 29.2205 31.2611L27.3686 32.9193V49.5038L33.6839 43.849C33.8399 43.0048 33.9179 42.1505 33.9171 41.2948Z" fill="#0154CE"/>
<path d="M27.3686 32.9193L18.3868 24.8768H3.79419V28.395L27.3686 49.5037C27.3686 49.5037 31.2977 47.1583 31.2977 41.2947C31.0945 38.1831 29.7079 35.2275 27.3686 32.9193Z" fill="#2684FF"/>
</svg>
