<svg width="46" height="46" viewBox="0 0 46 46" fill="none" xmlns="http://www.w3.org/2000/svg">
<path d="M0.5 5.5C0.5 2.75 2.75 0.5 5.5 0.5H40.5C43.25 0.5 45.5 2.75 45.5 5.5V40.5C45.5 43.25 43.25 45.5 40.5 45.5H5.5C2.75 45.5 0.5 43.25 0.5 40.5V5.5Z" fill="#1E88E5"/>
<path d="M5.5 8.25C5.5 6.75 6.75 5.5 8.25 5.5H17.75C19.25 5.5 20.5 6.75 20.5 8.25V35.25C20.5 36.75 19.25 38 17.75 38H8.25C6.75 38 5.5 36.75 5.5 35.25V8.25ZM25.5 21.5C25.5 23 26.75 24.25 28.25 24.25H37.75C39.25 24.25 40.5 23 40.5 21.5V8.25C40.5 6.75 39.25 5.5 37.75 5.5H28.25C26.75 5.5 25.5 6.75 25.5 8.25V21.5Z" fill="white"/>
</svg>
