<svg width="60" height="60" viewBox="0 0 60 60" fill="none" xmlns="http://www.w3.org/2000/svg">
<path d="M51.1624 19.45L43.2749 27.3376L42.7624 27.0375L40.8374 25.9L36.7 23.4626L48.0374 12.1125L50.1249 17.0125L50.7625 18.5125L51.1624 19.45Z" fill="#00B8D4"/>
<path d="M37.5638 13.315L36.25 11.25L31.25 8.75L26.25 11.25L18.75 7.5L7.5 12.5L11.0938 33.34L30.7812 33.125L37.5638 13.315Z" fill="#00B8D4"/>
<path d="M35.9375 7.65625L25 18.75L33.4113 21.5212L45.845 8.2475L35.9375 7.65625Z" fill="#FFEA00"/>
<path d="M46.4062 8.28131L45.845 8.24756L32.5 21.2501L36.6963 23.4601L48.0387 12.1176L46.4062 8.28131Z" fill="#9CCC65"/>
<path d="M52.65 22.975L46.725 29.375L43.275 27.3375L51.1625 19.45L52.65 22.975Z" fill="#2979FF"/>
<path d="M40 17.5L31.235 31.8013L40.0787 44.51L52.65 37.025L40 17.5Z" fill="#00B8D4"/>
<path d="M30.7812 33.125L11.0938 33.34L13.75 48.75L38.75 52.5L40.075 44.5125L40.0788 44.51L31.235 31.8013L30.7812 33.125Z" fill="#1E88E5"/>
<path d="M43.75 16.25H16.25V43.75H43.75V16.25Z" fill="#090504"/>
<path d="M41.25 43.75L32.5 48.75L26.25 43.75H41.25Z" fill="#00B8D4"/>
<path d="M28.75 38.75H18.75V41.25H28.75V38.75Z" fill="white"/>
<path d="M18.2812 19.8438H20.7812L22.6562 26.4062L24.6875 19.8438H26.5625L28.4375 26.25L30 19.8438H32.6562L29.5312 31.25H27.3438L25.3125 25.3125L23.5938 31.0937H21.4062L18.2812 19.8438Z" fill="white"/>
<path d="M39.6875 22.8125L40.9375 20.9375C40.9375 20.9375 39.4463 19.485 36.4063 19.5312C33.7088 19.5725 32.7725 21.665 32.8125 22.8125C32.8475 23.8 32.8125 25.3125 36.4063 26.4062C37.405 26.71 38.0288 27.0262 38.41 27.3237C39.03 27.8075 38.7675 28.8237 38 28.9962C37.0825 29.2025 35.46 29.2625 33.9063 27.8125L32.3438 29.6875C32.3438 29.6875 34.6875 31.5625 37.3438 31.4062C40 31.25 41.5625 29.375 41.4063 27.8125C41.25 26.25 40.3125 25.3125 38.2813 24.5312C36.25 23.75 35.2175 24.0112 35.25 22.5575C35.2788 21.2712 37.5 21.25 39.6875 22.8125Z" fill="white"/>
</svg>
