<svg width="60" height="60" viewBox="0 0 60 60" fill="none" xmlns="http://www.w3.org/2000/svg">
<path d="M55 47.5L8.25 54.875L2.5 17.25L49 10.125L55 47.5Z" fill="#03A9F4"/>
<path d="M49 10.125L55 47.5L8.25 54.875L7.75 51.25L49 10.125Z" fill="#039BE5"/>
<path d="M2.5 17.25L5.5 36.625L27.75 13.375L2.5 17.25Z" fill="#29B6F6"/>
<path d="M10.375 52L5.375 19.25L47 12.875L52.25 45.375L10.375 52ZM8.25 21.375L12.5 49.125L49.375 43.25L45 15.625L8.25 21.375Z" fill="white"/>
<path d="M13.875 33.75L14.375 37.5L45 32.625L44.375 28.875L13.875 33.75Z" fill="white"/>
<path d="M20.75 42.8749L16.875 47.4999L17.375 41.4999C17.375 41.3749 17.375 41.2499 17.5 41.1249L24 25.2499C24.25 24.6249 25 24.2499 25.625 24.6249L26.75 25.1249C27.375 25.3749 27.75 26.1249 27.375 26.7499L21 42.4999C20.875 42.6249 20.875 42.7499 20.75 42.8749ZM38.375 36.4999L26.75 22.8749C26.25 22.3749 26.375 21.4999 26.875 21.1249L27.875 20.3749C28.375 19.8749 29.25 19.9999 29.625 20.4999L41.25 34.1249L38.375 36.4999ZM42 34.9999C42 34.9999 45 35.8749 45 39.3749C45 41.6249 44.375 42.4999 44.375 42.4999C44.375 42.4999 43.875 40.9999 41.5 40.1249C38.25 38.9999 38.375 36.4999 38.375 36.4999L41.125 35.8749L42 34.9999Z" fill="white"/>
<path d="M25.5 31.25L24 34.875L26.375 32.625L26.875 31.25H25.5Z" fill="#03A9F4"/>
<path d="M24.375 37.5L26.375 32.625L24 34.875L23 37.5H24.375Z" fill="#039BE5"/>
<path d="M19 37.5L21.5 31.25H20.125L17.625 37.5H19Z" fill="#03A9F4"/>
<path d="M42.375 33.5L38.25 28.75H36.625L41 33.75L41.25 34.125L38.375 36.5L36.75 34.625L32.75 30H31.125L34.875 34.375L37.375 37.375L38.25 38.25L39.125 37.5L42 35L43 34.25L42.375 33.5Z" fill="#039BE5"/>
<path d="M21.25 26.125V27.5L27.5 30.125V28.75L21.25 26.125Z" fill="#03A9F4"/>
<path d="M22.5 42L18.625 40.375L17.625 41.375L22.5 43.375V42Z" fill="#039BE5"/>
<path d="M16.25 39.375V40.75L17.625 41.375L18.625 40.375L16.25 39.375Z" fill="#03A9F4"/>
<path d="M47.375 15.25V15.375L48.25 20.625L49.875 16.125C49.875 16 50 15.875 50 15.75L49.5 12.875C48.5 13.5 47.625 14.5 47.375 15.25ZM42.375 40.5C42.125 40.375 41.875 40.25 41.5 40.125C40.875 39.875 40.5 39.75 40.125 39.5L38.5 45L41.25 44.625L42.375 40.5ZM37.75 47.625L37.125 50.375L39.75 49.875L40.5 47.25L37.75 47.625ZM43.5 27.25V27.375L43 29.125L44.375 28.875L44.875 31.625L45.875 28L46.5 26L45.625 20.5L44.25 24.875L43.5 27.25Z" fill="#0277BD"/>
<path d="M45.625 20.5L46.5 26L48.125 20.625L47.25 15.375C46.625 17.125 46 18.875 45.875 19.125L45.625 20.5ZM38.5 45L37.75 47.625L40.5 47.25L41.25 44.625L38.5 45ZM44.875 31.625L44.375 28.875L43 29.125L41.875 33.125L44.5 32.75L44.875 31.625ZM42 35L41.25 35.375L40.125 39.5C40.5 39.75 41 40 41.5 40.125C41.875 40.25 42.125 40.375 42.375 40.5L43.625 36C42.875 35.25 42 35 42 35Z" fill="#90A4AE"/>
<path d="M43.625 36L44.5 32.625L41.75 33L41 35.75L42 34.875C42 35 42.875 35.25 43.625 36Z" fill="#0277BD"/>
<path d="M42 35L41 35.875L40 39.5C40.375 39.75 40.875 40 41.375 40.125C41.75 40.25 42 40.375 42.25 40.5L43.5 36C42.875 35.25 42 35 42 35Z" fill="#90A4AE"/>
<path d="M45 5.625C37.5 5.625 32.5 7.5 32.5 7.5V8.125C43.25 8.125 44.625 12.125 45 13.125V5.625Z" fill="#78909C"/>
<path d="M55 7.875C54.75 8.375 54.5 8.75 53.75 8.75C52.375 8.75 51.25 6.75 51.25 6.75C49.125 5.375 45 3.75 41.25 3.75C33.75 3.75 31.25 5.625 31.25 5.625V6.25C36.5 6.25 38.5 6.75 40.375 8.125C43.375 10.375 43.125 15.5 42 19.5L39.75 26.25L43.375 27.375L46 19.125C46.125 19 46.75 17.125 47.375 15.25C47.75 14.25 48.75 13 50 12.625C50.75 12.375 51.75 12.25 52.375 12.75C53 13.25 53 13.625 52.875 14.125L55.375 14.875L57.5 8.75L55 7.875Z" fill="#D7DEE2"/>
<path d="M53.75 8.75C52.375 8.75 51.25 6.75 51.25 6.75L50.25 9.875C49.875 11.25 48.375 11.875 47.125 11.5L41.75 9.75C42.375 10.875 42.625 12.125 42.75 13.625L47.5 15.125C47.875 14.375 48.5 13.5 49.375 13C49.625 12.875 49.875 12.75 50.125 12.625C50.875 12.375 51.875 12.25 52.5 12.75C53.125 13.25 53.125 13.625 53 14.125L55 7.875C54.75 8.375 54.5 8.75 53.75 8.75Z" fill="#90A4AE"/>
<path d="M39.7499 26.25L28.875 51.625C28.25 53.25 29.125 55.25 30.875 55.75L32 56.125C33.75 56.625 35.5 55.625 35.875 54.375L43.375 27.375L39.7499 26.25Z" fill="#424242"/>
</svg>
